<svg width="94" height="38" viewBox="0 0 94 38" fill="none" xmlns="http://www.w3.org/2000/svg">
<mask id="mask0" mask-type="alpha" maskUnits="userSpaceOnUse" x="25" y="0" width="39" height="38">
<path fill-rule="evenodd" clip-rule="evenodd" d="M25.3169 0H63.2408V38H25.3169L25.3169 0Z" fill="white"/>
</mask>
<g mask="url(#mask0)">
<path fill-rule="evenodd" clip-rule="evenodd" d="M44.2784 7.18816C41.1451 7.18816 38.4741 8.34616 36.2657 10.6494C34.0574 12.953 32.9528 15.745 32.9528 19.0006C32.9528 22.2554 34.0574 25.047 36.2789 27.3506C38.5 29.6546 41.1723 30.8118 44.2784 30.8118C47.4381 30.8118 50.1223 29.6674 52.3179 27.3626C54.5131 25.0726 55.6053 22.2806 55.6053 19.0006C55.6053 15.7198 54.5131 12.927 52.3179 10.6374C50.1223 8.33376 47.4381 7.18816 44.2784 7.18816M44.5946 -0.000244141C49.7051 -0.000244141 54.0935 1.86376 57.7506 5.59136C61.4077 9.32816 63.2408 13.789 63.2408 18.9822C63.2408 24.275 61.3985 28.7626 57.7147 32.4542C54.0309 36.1546 49.5518 38.0002 44.2784 38.0002C39.0421 38.0002 34.5723 36.1458 30.8697 32.4358C27.168 28.717 25.3169 24.2382 25.3169 18.9822C25.3169 13.6802 27.1772 9.19256 30.9061 5.51936C34.6354 1.83656 39.2042 -0.000244141 44.5946 -0.000244141" fill="#434343"/>
</g>
<mask id="mask1" mask-type="alpha" maskUnits="userSpaceOnUse" x="0" y="0" width="25" height="38">
<path fill-rule="evenodd" clip-rule="evenodd" d="M0 37.9372V0.000244141L24.2716 0.000244141V37.9372H0Z" fill="white"/>
</mask>
<g mask="url(#mask1)">
<path fill-rule="evenodd" clip-rule="evenodd" d="M10.1862 0.203193C5.78859 1.09159 2.48024 4.91999 2.48024 9.50799C2.48024 14.6272 5.19965 16.2344 9.14249 18.5396L11.9042 20.1536C13.5958 21.1424 15.7934 22.2952 16.5901 24.1604C16.8326 24.7268 16.9664 25.3492 16.9664 26.0028C16.9664 28.626 14.8034 30.7528 12.1352 30.7528C9.46788 30.7528 7.30529 28.626 7.30529 26.0028L7.3061 25.9528H0.000406731L0 26.0028C0 32.5936 5.43352 37.9372 12.1352 37.9372C18.8377 37.9372 24.2717 32.5936 24.2717 26.0028C24.2717 22.1616 22.4259 18.744 19.5593 16.5612C18.6441 15.8636 17.5651 15.2888 16.5629 14.7152L14.4312 13.4956L11.0106 11.538L10.9553 11.5076C9.83231 10.8652 9.4512 9.44879 10.1052 8.34399C10.4904 7.69359 11.1477 7.29599 11.8529 7.21079C12.7909 7.09759 13.368 7.53559 14.1225 7.96759L16.8606 9.58799L20.8234 3.49719L17.8604 1.74519C15.3927 0.305593 13.026 -0.368407 10.1862 0.203193" fill="#434343"/>
</g>
<mask id="mask2" mask-type="alpha" maskUnits="userSpaceOnUse" x="66" y="0" width="28" height="38">
<path fill-rule="evenodd" clip-rule="evenodd" d="M93.8908 0H66.9189L66.9189 37.9663H93.8908V0Z" fill="white"/>
</mask>
<g mask="url(#mask2)">
<path fill-rule="evenodd" clip-rule="evenodd" d="M90.1221 -0.00012207L81.0076 15.7311L93.8908 37.9663H86.2627L74.1343 17.0351V37.9663H66.9189V-0.00012207H74.1343V14.4351L82.4969 -0.00012207H90.1221Z" fill="#434343"/>
</g>
</svg>
