<svg width="30" height="30" viewBox="0 0 30 30" fill="none" xmlns="http://www.w3.org/2000/svg">
<path fill-rule="evenodd" clip-rule="evenodd" d="M15.0043 15.2605L10.6345 11.3012C10.4125 11.1001 10.1414 11 9.82084 11C9.50024 11 9.22861 11.1001 9.00719 11.3012L8.33247 11.9126C8.11091 12.1132 8 12.3588 8 12.6493C8 12.9404 8.11091 13.1859 8.33247 13.3871L14.1864 18.6988C14.4078 18.8994 14.6794 19 15 19C15.3206 19 15.5917 18.8994 15.8136 18.6988L21.667 13.3871C21.8889 13.1859 22 12.9404 22 12.6493C22 12.3588 21.8889 12.1132 21.667 11.9126L20.9928 11.3012C20.7708 11.1001 20.5014 11 20.1834 11C19.866 11 19.5929 11.1001 19.3655 11.3012L15.0043 15.2605Z" fill="white"/>
</svg>
