<svg width="51" height="51" viewBox="0 0 51 51" fill="none" xmlns="http://www.w3.org/2000/svg">
<path d="M16 39.9932C8.26761 39.9932 2 33.7263 2 25.9966C2 18.2669 8.26761 12 16 12C23.7324 12 30 18.2669 30 25.9966C30 33.7263 23.7324 39.9932 16 39.9932Z" stroke="#434343" stroke-width="4"/>
<path fill-rule="evenodd" clip-rule="evenodd" d="M47.0008 25.9923L42.7666 30.3612C42.5515 30.5831 42.4445 30.8541 42.4445 31.1747C42.4445 31.4952 42.5515 31.7668 42.7666 31.9881L43.4204 32.6627C43.6349 32.8842 43.8976 32.9951 44.2083 32.9951C44.5196 32.9951 44.7821 32.8842 44.9973 32.6627L50.6779 26.8101C50.8924 26.5887 51 26.3171 51 25.9966C51 25.676 50.8924 25.405 50.6779 25.1831L44.9973 19.331C44.7821 19.1091 44.5196 18.998 44.2083 18.998C43.8976 18.998 43.6349 19.1091 43.4204 19.331L42.7666 20.005C42.5515 20.2269 42.4445 20.4963 42.4445 20.8142C42.4445 21.1316 42.5515 21.4047 42.7666 21.632L47.0008 25.9923Z" fill="#434343"/>
</svg>
