<svg width="51" height="51" viewBox="0 0 51 51" fill="none" xmlns="http://www.w3.org/2000/svg">
<path d="M34.7085 12C42.4409 12 48.7085 18.2669 48.7085 25.9966C48.7085 33.7263 42.4409 39.9932 34.7085 39.9932C26.9761 39.9932 20.7085 33.7263 20.7085 25.9966C20.7085 18.2669 26.9761 12 34.7085 12Z" stroke="#434343" stroke-width="4"/>
<path fill-rule="evenodd" clip-rule="evenodd" d="M3.99921 25.7097L8.23341 21.3409C8.44849 21.119 8.55556 20.848 8.55556 20.5275C8.55556 20.2069 8.44849 19.9354 8.23341 19.714L7.57962 19.0394C7.36507 18.8179 7.10241 18.707 6.79175 18.707C6.48043 18.707 6.2179 18.8179 6.00269 19.0394L0.32215 24.892C0.107606 25.1133 0 25.3849 0 25.7054C0 26.026 0.107606 26.297 0.32215 26.5189L6.00269 32.3709C6.2179 32.5928 6.48043 32.7039 6.79175 32.7039C7.10241 32.7039 7.36507 32.5928 7.57962 32.3709L8.23341 31.6969C8.44849 31.475 8.55556 31.2056 8.55556 30.8877C8.55556 30.5703 8.44849 30.2973 8.23341 30.07L3.99921 25.7097Z" fill="#434343"/>
</svg>
